<?xml version="1.0" encoding="UTF-8" standalone="no"?>
<!-- Created with Inkscape (http://www.inkscape.org/) -->

<svg
   xmlns:dc="http://purl.org/dc/elements/1.1/"
   xmlns:cc="http://creativecommons.org/ns#"
   xmlns:rdf="http://www.w3.org/1999/02/22-rdf-syntax-ns#"
   xmlns:svg="http://www.w3.org/2000/svg"
   xmlns="http://www.w3.org/2000/svg"
   xmlns:xlink="http://www.w3.org/1999/xlink"
   xmlns:sodipodi="http://sodipodi.sourceforge.net/DTD/sodipodi-0.dtd"
   xmlns:inkscape="http://www.inkscape.org/namespaces/inkscape"
   sodipodi:docname="dots-button.svg"
   inkscape:version="0.48.4 r9939"
   sodipodi:version="0.32"
   id="svg1878"
   height="23.846292"
   width="100"
   inkscape:output_extension="org.inkscape.output.svg.inkscape"
   version="1.0"
   inkscape:export-filename="D:\Documents and Settings\Joanna\My Documents\My Pictures\graph_vector\admin\kuba_red_menu_icons_set.png"
   inkscape:export-xdpi="90.16198"
   inkscape:export-ydpi="90.16198">
  <metadata
     id="metadata3">
    <rdf:RDF>
      <cc:Work
         rdf:about="">
        <dc:title></dc:title>
        <dc:description>icons for toolbar buttons</dc:description>
        <dc:subject>
          <rdf:Bag>
            <rdf:li>icon</rdf:li>
            <rdf:li>arrow</rdf:li>
            <rdf:li>navigation</rdf:li>
            <rdf:li>green</rdf:li>
            <rdf:li>red</rdf:li>
            <rdf:li>button</rdf:li>
          </rdf:Bag>
        </dc:subject>
        <dc:publisher>
          <cc:Agent
             rdf:about="http://www.openclipart.org">
            <dc:title>Open Clip Art Library</dc:title>
          </cc:Agent>
        </dc:publisher>
        <dc:creator>
          <cc:Agent>
            <dc:title>Jakub Jankiewicz</dc:title>
          </cc:Agent>
        </dc:creator>
        <dc:rights>
          <cc:Agent>
            <dc:title>Jakub Jankiewicz</dc:title>
          </cc:Agent>
        </dc:rights>
        <dc:date />
        <dc:format>image/svg+xml</dc:format>
        <dc:type
           rdf:resource="http://purl.org/dc/dcmitype/StillImage" />
        <cc:license
           rdf:resource="http://web.resource.org/cc/PublicDomain" />
        <dc:language>pl</dc:language>
      </cc:Work>
      <cc:License
         rdf:about="http://web.resource.org/cc/PublicDomain">
        <cc:permits
           rdf:resource="http://web.resource.org/cc/Reproduction" />
        <cc:permits
           rdf:resource="http://web.resource.org/cc/Distribution" />
        <cc:permits
           rdf:resource="http://web.resource.org/cc/DerivativeWorks" />
      </cc:License>
    </rdf:RDF>
  </metadata>
  <defs
     id="defs3">
    <linearGradient
       inkscape:collect="always"
       xlink:href="#linearGradient11462"
       id="linearGradient4214"
       gradientUnits="userSpaceOnUse"
       gradientTransform="matrix(0,0.80139,-1.247831,0,-91.98082,2.832902)"
       x1="392.41861"
       y1="-308.43417"
       x2="412.94818"
       y2="-287.17914" />
    <linearGradient
       inkscape:collect="always"
       xlink:href="#linearGradient11462"
       id="linearGradient4220"
       gradientUnits="userSpaceOnUse"
       gradientTransform="matrix(0.80139,0,0,1.247832,-83.30236,3.761402)"
       x1="358.60312"
       y1="247.41286"
       x2="341.68527"
       y2="267.08432" />
    <linearGradient
       inkscape:collect="always"
       xlink:href="#linearGradient7090"
       id="linearGradient9068"
       gradientUnits="userSpaceOnUse"
       gradientTransform="scale(-1.20748,-0.828171)"
       x1="-451.17389"
       y1="-315.64212"
       x2="-433.6821"
       y2="-333.89999" />
    <linearGradient
       inkscape:collect="always"
       xlink:href="#linearGradient2315"
       id="linearGradient9071"
       gradientUnits="userSpaceOnUse"
       gradientTransform="matrix(-0.867067,0,0,-0.594693,497.8279,330.6143)"
       x1="-53.427612"
       y1="109.7897"
       x2="-31.586103"
       y2="95.684341" />
    <linearGradient
       inkscape:collect="always"
       xlink:href="#linearGradient2372"
       id="linearGradient8316"
       gradientUnits="userSpaceOnUse"
       gradientTransform="matrix(2.136424,0,0,0.418246,623.2448,181.4234)"
       x1="-50.436199"
       y1="124.94588"
       x2="-50.436199"
       y2="165.6252" />
    <linearGradient
       inkscape:collect="always"
       xlink:href="#linearGradient7090"
       id="linearGradient8960"
       gradientUnits="userSpaceOnUse"
       gradientTransform="matrix(0,1.20748,-0.828171,0,0,0)"
       x1="215.31508"
       y1="-458.99512"
       x2="233.06174"
       y2="-441.21478" />
    <linearGradient
       inkscape:collect="always"
       xlink:href="#linearGradient2315"
       id="linearGradient8963"
       gradientUnits="userSpaceOnUse"
       gradientTransform="matrix(0,0.867067,-0.594693,0,434.3013,307.465)"
       x1="-53.427612"
       y1="109.7897"
       x2="-31.586103"
       y2="95.684341" />
    <linearGradient
       inkscape:collect="always"
       xlink:href="#linearGradient2372"
       id="linearGradient8322"
       gradientUnits="userSpaceOnUse"
       gradientTransform="matrix(2.136424,0,0,0.418246,475.3562,179.7453)"
       x1="-50.436199"
       y1="124.94588"
       x2="-50.436199"
       y2="165.6252" />
    <linearGradient
       inkscape:collect="always"
       xlink:href="#linearGradient7090"
       id="linearGradient10532"
       gradientUnits="userSpaceOnUse"
       gradientTransform="matrix(1.20748,0,0,0.828171,-24.66659,304.2048)"
       x1="248.20323"
       y1="312.07166"
       x2="230.44843"
       y2="331.67487" />
    <linearGradient
       inkscape:collect="always"
       xlink:href="#linearGradient2315"
       id="linearGradient10530"
       gradientUnits="userSpaceOnUse"
       gradientTransform="matrix(0.867067,0,0,0.594693,300.8685,509.5204)"
       x1="-53.427612"
       y1="109.7897"
       x2="-31.586103"
       y2="95.684341" />
    <linearGradient
       inkscape:collect="always"
       xlink:href="#linearGradient2372"
       id="linearGradient10528"
       gradientUnits="userSpaceOnUse"
       gradientTransform="matrix(2.136424,0,0,0.418246,389.9845,182.2898)"
       x1="-50.436199"
       y1="124.94588"
       x2="-50.436199"
       y2="165.6252" />
    <linearGradient
       inkscape:collect="always"
       xlink:href="#linearGradient11462"
       id="linearGradient7377"
       gradientUnits="userSpaceOnUse"
       gradientTransform="matrix(-0.80139,0,0,-1.247831,-11.99137,4.689902)"
       x1="-579.00195"
       y1="-246.08231"
       x2="-559.39771"
       y2="-267.71384" />
    <linearGradient
       inkscape:collect="always"
       xlink:href="#linearGradient11462"
       id="linearGradient7666"
       gradientUnits="userSpaceOnUse"
       gradientTransform="matrix(0.80139,0,0,1.247832,21.81462,45.70683)"
       x1="358.60312"
       y1="247.41286"
       x2="341.68527"
       y2="267.08432" />
    <linearGradient
       inkscape:collect="always"
       xlink:href="#linearGradient11462"
       id="linearGradient7664"
       gradientUnits="userSpaceOnUse"
       gradientTransform="matrix(0.80139,0,0,1.247832,-2.077583,45.70683)"
       x1="358.60312"
       y1="247.41286"
       x2="341.68527"
       y2="267.08432" />
    <linearGradient
       inkscape:collect="always"
       xlink:href="#linearGradient11462"
       id="linearGradient7732"
       gradientUnits="userSpaceOnUse"
       gradientTransform="matrix(0,0.80139,-1.247832,0,0,0)"
       x1="488.85745"
       y1="-301.27124"
       x2="507.57675"
       y2="-281.40521" />
    <linearGradient
       inkscape:collect="always"
       xlink:href="#linearGradient11462"
       id="linearGradient7730"
       gradientUnits="userSpaceOnUse"
       gradientTransform="matrix(0,0.80139,-1.247832,0,0,0)"
       x1="458.62335"
       y1="-301.67392"
       x2="477.9736"
       y2="-280.46561" />
    <linearGradient
       inkscape:collect="always"
       xlink:href="#linearGradient11462"
       id="linearGradient7718"
       gradientUnits="userSpaceOnUse"
       gradientTransform="scale(-0.80139,-1.247832)"
       x1="-563.7262"
       y1="-297.63159"
       x2="-546.16992"
       y2="-318.54547" />
    <linearGradient
       inkscape:collect="always"
       xlink:href="#linearGradient11462"
       id="linearGradient7716"
       gradientUnits="userSpaceOnUse"
       gradientTransform="scale(-0.80139,-1.247832)"
       x1="-593.22046"
       y1="-298.25281"
       x2="-575.34497"
       y2="-318.54547" />
    <linearGradient
       inkscape:collect="always"
       xlink:href="#linearGradient11462"
       id="linearGradient7714"
       gradientUnits="userSpaceOnUse"
       gradientTransform="matrix(0,-0.80139,1.247831,0,-75.01063,3.703202)"
       x1="-390.87134"
       y1="361.03598"
       x2="-413.24628"
       y2="338.45248" />
    <linearGradient
       inkscape:collect="always"
       xlink:href="#linearGradient11462"
       id="linearGradient7756"
       gradientUnits="userSpaceOnUse"
       gradientTransform="matrix(0,-0.80139,1.247832,0,0,0)"
       x1="-456.45148"
       y1="358.80856"
       x2="-476.01202"
       y2="338.0029" />
    <linearGradient
       inkscape:collect="always"
       xlink:href="#linearGradient11462"
       id="linearGradient7754"
       gradientUnits="userSpaceOnUse"
       gradientTransform="matrix(0,-0.80139,1.247832,0,0,0)"
       x1="-485.63391"
       y1="358.67432"
       x2="-505.8255"
       y2="337.60022" />
    <linearGradient
       inkscape:collect="always"
       xlink:href="#linearGradient7090"
       id="linearGradient9014"
       gradientUnits="userSpaceOnUse"
       gradientTransform="matrix(0,-1.20748,0.828171,0,0,0)"
       x1="-215.19727"
       y1="558.79907"
       x2="-232.25471"
       y2="540.76831" />
    <linearGradient
       inkscape:collect="always"
       xlink:href="#linearGradient2315"
       id="linearGradient9017"
       gradientUnits="userSpaceOnUse"
       gradientTransform="matrix(0,-0.867067,0.594693,0,393.8812,233.7987)"
       x1="-53.427612"
       y1="109.7897"
       x2="-31.586103"
       y2="95.684341" />
    <linearGradient
       inkscape:collect="always"
       xlink:href="#linearGradient2372"
       id="linearGradient8328"
       gradientUnits="userSpaceOnUse"
       gradientTransform="matrix(2.136424,0,0,0.418246,553.0718,180.3036)"
       x1="-50.436199"
       y1="124.94588"
       x2="-50.436199"
       y2="165.6252" />
    <linearGradient
       inkscape:collect="always"
       xlink:href="#linearGradient11462"
       id="linearGradient8731"
       gradientUnits="userSpaceOnUse"
       gradientTransform="scale(-1.20748,-0.828171)"
       x1="-451.30542"
       y1="-228.70355"
       x2="-434.33966"
       y2="-246.57704" />
    <linearGradient
       inkscape:collect="always"
       xlink:href="#linearGradient2315"
       id="linearGradient8734"
       gradientUnits="userSpaceOnUse"
       gradientTransform="matrix(-0.867067,0,0,-0.594693,497.8279,258.6143)"
       x1="-53.427612"
       y1="109.7897"
       x2="-31.586103"
       y2="95.684341" />
    <linearGradient
       inkscape:collect="always"
       xlink:href="#linearGradient2372"
       id="linearGradient8622"
       gradientUnits="userSpaceOnUse"
       gradientTransform="matrix(2.136424,0,0,0.418246,623.2448,181.4234)"
       x1="-50.436199"
       y1="124.94588"
       x2="-50.436199"
       y2="165.6252" />
    <linearGradient
       inkscape:collect="always"
       xlink:href="#linearGradient11462"
       id="linearGradient8765"
       gradientUnits="userSpaceOnUse"
       gradientTransform="matrix(0,1.20748,-0.828171,0,0,0)"
       x1="155.51448"
       y1="-459.7464"
       x2="173.43343"
       y2="-440.7139" />
    <linearGradient
       inkscape:collect="always"
       xlink:href="#linearGradient2315"
       id="linearGradient8768"
       gradientUnits="userSpaceOnUse"
       gradientTransform="matrix(0,0.867067,-0.594693,0,434.3013,235.465)"
       x1="-53.427612"
       y1="109.7897"
       x2="-31.586103"
       y2="95.684341" />
    <linearGradient
       inkscape:collect="always"
       xlink:href="#linearGradient2372"
       id="linearGradient8628"
       gradientUnits="userSpaceOnUse"
       gradientTransform="matrix(2.136424,0,0,0.418246,475.3562,179.7453)"
       x1="-50.436199"
       y1="124.94588"
       x2="-50.436199"
       y2="165.6252" />
    <linearGradient
       inkscape:collect="always"
       xlink:href="#linearGradient11462"
       id="linearGradient8771"
       gradientUnits="userSpaceOnUse"
       gradientTransform="scale(1.20748,0.828171)"
       x1="248.07172"
       y1="224.94089"
       x2="230.57993"
       y2="244.73628" />
    <linearGradient
       inkscape:collect="always"
       xlink:href="#linearGradient2315"
       id="linearGradient8774"
       gradientUnits="userSpaceOnUse"
       gradientTransform="matrix(0.867067,0,0,0.594693,325.5351,133.3156)"
       x1="-53.427612"
       y1="109.7897"
       x2="-31.586103"
       y2="95.684341" />
    <linearGradient
       inkscape:collect="always"
       xlink:href="#linearGradient2372"
       id="linearGradient8634"
       gradientUnits="userSpaceOnUse"
       gradientTransform="matrix(2.136424,0,0,0.418246,389.9845,182.2898)"
       x1="-50.436199"
       y1="124.94588"
       x2="-50.436199"
       y2="165.6252" />
    <linearGradient
       inkscape:collect="always"
       xlink:href="#linearGradient11462"
       id="linearGradient8759"
       gradientUnits="userSpaceOnUse"
       gradientTransform="matrix(0,-1.20748,0.828171,0,0,0)"
       x1="-155.74126"
       y1="558.79907"
       x2="-171.93723"
       y2="541.26917" />
    <linearGradient
       id="linearGradient2315">
      <stop
         style="stop-color:#83cb46;stop-opacity:1.0000000;"
         offset="0.0000000"
         id="stop2317" />
      <stop
         style="stop-color:#ffffff;stop-opacity:1.0000000;"
         offset="1.0000000"
         id="stop2319" />
    </linearGradient>
    <linearGradient
       inkscape:collect="always"
       xlink:href="#linearGradient2315"
       id="linearGradient8762"
       gradientUnits="userSpaceOnUse"
       gradientTransform="matrix(0,-0.867067,0.594693,0,393.8812,161.7987)"
       x1="-53.427612"
       y1="109.7897"
       x2="-31.586103"
       y2="95.684341" />
    <linearGradient
       id="linearGradient2372">
      <stop
         style="stop-color:#006f9d;stop-opacity:1.0000000;"
         offset="0.0000000"
         id="stop2374" />
      <stop
         style="stop-color:#7bcefb;stop-opacity:1.0000000;"
         offset="1.0000000"
         id="stop2376" />
    </linearGradient>
    <linearGradient
       inkscape:collect="always"
       xlink:href="#linearGradient2372"
       id="linearGradient8640"
       gradientUnits="userSpaceOnUse"
       gradientTransform="matrix(2.136424,0,0,0.418246,553.0718,180.3036)"
       x1="-50.436199"
       y1="124.94588"
       x2="-50.436199"
       y2="165.6252" />
    <linearGradient
       inkscape:collect="always"
       xlink:href="#linearGradient11462"
       id="linearGradient9478"
       gradientUnits="userSpaceOnUse"
       gradientTransform="matrix(-1.673203,0,0,-1.147595,-296.4722,-123.4769)"
       x1="-451.30542"
       y1="-228.70355"
       x2="-434.33966"
       y2="-246.57704" />
    <linearGradient
       inkscape:collect="always"
       xlink:href="#linearGradient11462"
       id="linearGradient9375"
       gradientUnits="userSpaceOnUse"
       gradientTransform="matrix(0,1.673203,-1.147595,0,-237.2859,-125.731)"
       x1="155.51448"
       y1="-459.7464"
       x2="173.43343"
       y2="-440.7139" />
    <linearGradient
       inkscape:collect="always"
       xlink:href="#linearGradient11462"
       id="linearGradient9351"
       gradientUnits="userSpaceOnUse"
       gradientTransform="matrix(1.673203,0,0,1.147595,-203.141,-119.8205)"
       x1="248.07172"
       y1="224.94089"
       x2="230.57993"
       y2="244.73628" />
    <linearGradient
       id="linearGradient11462">
      <stop
         style="stop-color:#80ff26;stop-opacity:1.0000000;"
         offset="0.0000000"
         id="stop11464" />
      <stop
         style="stop-color:#2c9600;stop-opacity:1.0000000;"
         offset="1.0000000"
         id="stop11466" />
    </linearGradient>
    <linearGradient
       inkscape:collect="always"
       xlink:href="#linearGradient11462"
       id="linearGradient9447"
       gradientUnits="userSpaceOnUse"
       gradientTransform="matrix(0,-1.673203,1.147595,0,-269.0057,-124.9573)"
       x1="-155.74126"
       y1="558.79907"
       x2="-171.93723"
       y2="541.26917" />
    <linearGradient
       inkscape:collect="always"
       xlink:href="#linearGradient7090"
       id="linearGradient9491"
       gradientUnits="userSpaceOnUse"
       gradientTransform="matrix(-1.673203,0,0,-1.147595,-296.4722,-182.0235)"
       x1="-451.30542"
       y1="-228.70355"
       x2="-434.33966"
       y2="-246.57704" />
    <linearGradient
       inkscape:collect="always"
       xlink:href="#linearGradient7090"
       id="linearGradient9493"
       gradientUnits="userSpaceOnUse"
       gradientTransform="matrix(0,1.673203,-1.147595,0,-237.2859,-184.2777)"
       x1="155.51448"
       y1="-459.7464"
       x2="173.43343"
       y2="-440.7139" />
    <linearGradient
       inkscape:collect="always"
       xlink:href="#linearGradient7090"
       id="linearGradient9495"
       gradientUnits="userSpaceOnUse"
       gradientTransform="matrix(1.673203,0,0,1.147595,-203.141,-178.3671)"
       x1="248.07172"
       y1="224.94089"
       x2="230.57993"
       y2="244.73628" />
    <linearGradient
       id="linearGradient7090">
      <stop
         style="stop-color:#ff2a26;stop-opacity:1.0000000;"
         offset="0.0000000"
         id="stop7092" />
      <stop
         style="stop-color:#96000d;stop-opacity:1.0000000;"
         offset="1.0000000"
         id="stop7094" />
    </linearGradient>
    <linearGradient
       inkscape:collect="always"
       xlink:href="#linearGradient7090"
       id="linearGradient9497"
       gradientUnits="userSpaceOnUse"
       gradientTransform="matrix(0,-1.673203,1.147595,0,-269.0057,-183.504)"
       x1="-155.74126"
       y1="558.79907"
       x2="-171.93723"
       y2="541.26917" />
    <linearGradient
       inkscape:collect="always"
       xlink:href="#linearGradient11462"
       id="linearGradient2656"
       gradientUnits="userSpaceOnUse"
       gradientTransform="matrix(0.80139,0,0,1.247832,-83.30236,3.761402)"
       x1="358.60312"
       y1="247.41286"
       x2="341.68527"
       y2="267.08432" />
    <linearGradient
       inkscape:collect="always"
       xlink:href="#linearGradient11462"
       id="linearGradient2658"
       gradientUnits="userSpaceOnUse"
       gradientTransform="matrix(-0.80139,0,0,-1.247831,-11.99137,4.689902)"
       x1="-579.00195"
       y1="-246.08231"
       x2="-559.39771"
       y2="-267.71384" />
    <linearGradient
       inkscape:collect="always"
       xlink:href="#linearGradient11462"
       id="linearGradient2660"
       gradientUnits="userSpaceOnUse"
       gradientTransform="matrix(0,-0.80139,1.247831,0,-75.01063,3.703202)"
       x1="-390.87134"
       y1="361.03598"
       x2="-413.24628"
       y2="338.45248" />
  </defs>
  <sodipodi:namedview
     inkscape:window-y="-8"
     inkscape:window-x="-8"
     inkscape:window-height="706"
     inkscape:window-width="1366"
     inkscape:document-units="px"
     inkscape:current-layer="layer1"
     inkscape:cy="7.8610621"
     inkscape:cx="80.318979"
     inkscape:zoom="11.313709"
     inkscape:pageshadow="2"
     inkscape:pageopacity="0.0"
     borderopacity="1.0"
     bordercolor="#666666"
     pagecolor="#ffffff"
     id="base"
     height="200px"
     width="269.51492px"
     showborder="true"
     showgrid="false"
     inkscape:window-maximized="1" />
  <metadata
     id="metadata4">
    <rdf:RDF>
      <cc:Work
         rdf:about="">
        <dc:format>image/svg+xml</dc:format>
        <dc:type
           rdf:resource="http://purl.org/dc/dcmitype/StillImage" />
      </cc:Work>
    </rdf:RDF>
  </metadata>
  <g
     inkscape:groupmode="layer"
     inkscape:label="Layer 1"
     id="layer1"
     transform="translate(-261.2131,-313.6164)">
    <path
       sodipodi:type="arc"
       style="fill:none;stroke:#cccccc"
       id="path3292"
       sodipodi:cx="2.4386721"
       sodipodi:cy="2.8680077"
       sodipodi:rx="1.4403853"
       sodipodi:ry="1.4403853"
       d="m 3.8790574,2.8680077 a 1.4403853,1.4403853 0 1 1 -2.88077068,0 1.4403853,1.4403853 0 1 1 2.88077068,0 z"
       transform="translate(291.36025,327.53934)" />
    <use
       id="use3296"
       xlink:href="#path3292"
       y="0"
       x="0"
       transform="translate(-13.761542,-3.965415e-8)"
       width="100"
       height="23.846292" />
    <use
       id="use3300"
       xlink:href="#path3292"
       y="0"
       x="0"
       transform="translate(-27.523083,-3.965415e-8)"
       width="100"
       height="23.846292" />
    <use
       id="use3383"
       xlink:href="#path3292"
       y="0"
       x="0"
       transform="translate(55.046165,-9.7511338)"
       width="100"
       height="23.846292" />
    <use
       id="use3387"
       xlink:href="#path3292"
       y="0"
       x="0"
       transform="translate(41.284624,-9.7511338)"
       width="100"
       height="23.846292" />
    <use
       id="use3391"
       xlink:href="#path3292"
       y="0"
       x="0"
       transform="translate(27.523082,-9.7511338)"
       width="100"
       height="23.846292" />
    <use
       id="use3395"
       xlink:href="#path3292"
       y="0"
       x="0"
       transform="translate(13.761541,-9.7511338)"
       width="100"
       height="23.846292" />
    <use
       id="use3399"
       xlink:href="#path3292"
       y="0"
       x="0"
       transform="translate(0,-9.7511338)"
       width="100"
       height="23.846292" />
    <use
       id="use3403"
       xlink:href="#path3292"
       y="0"
       x="0"
       transform="translate(-13.761542,-9.7511338)"
       width="100"
       height="23.846292" />
    <use
       id="use3411"
       xlink:href="#path3292"
       y="0"
       x="0"
       transform="translate(13.761541,3.6034585e-7)"
       width="100"
       height="23.846292" />
    <use
       id="use3415"
       xlink:href="#path3292"
       y="0"
       x="0"
       transform="translate(27.523082,3.6034585e-7)"
       width="100"
       height="23.846292" />
    <use
       id="use3419"
       xlink:href="#path3292"
       y="0"
       x="0"
       transform="translate(41.284624,3.6034585e-7)"
       width="100"
       height="23.846292" />
    <use
       id="use3423"
       xlink:href="#path3292"
       y="0"
       x="0"
       transform="translate(55.046165,3.6034585e-7)"
       width="100"
       height="23.846292" />
    <path
       style="fill:#cccccc;fill-opacity:1;fill-rule:nonzero;stroke:#cccccc;stroke-width:0.02852248"
       d="m 266.08482,322.56611 c -0.44562,-0.0413 -0.83948,-0.23331 -1.17635,-0.57338 -0.23519,-0.23742 -0.35711,-0.44226 -0.48034,-0.80702 -0.0946,-0.28002 -0.0951,-0.76303 -0.001,-1.06021 0.20419,-0.64549 0.68038,-1.11853 1.32976,-1.32099 0.2941,-0.0917 0.74495,-0.0881 1.05534,0.008 0.67458,0.20975 1.15167,0.70848 1.32781,1.38803 0.0521,0.20081 0.0598,0.29035 0.0471,0.54137 -0.0225,0.44188 -0.13866,0.75836 -0.4036,1.09917 -0.4,0.51455 -1.03641,0.78604 -1.69862,0.72461 z m 0.53229,-1.02805 c 0.2076,-0.0777 0.41252,-0.26732 0.51557,-0.47715 0.0675,-0.13744 0.0787,-0.19516 0.0782,-0.40287 -7.3e-4,-0.30763 -0.0728,-0.48169 -0.28116,-0.67871 -0.36895,-0.34895 -0.93581,-0.354 -1.29627,-0.0116 -0.16609,0.15779 -0.2438,0.30073 -0.29301,0.53899 -0.0313,0.15174 -0.0294,0.19739 0.0151,0.36194 0.15597,0.57622 0.71614,0.87344 1.26156,0.66937 z"
       id="path3463"
       inkscape:connector-curvature="0" />
    <path
       style="fill:#cccccc;fill-opacity:1;fill-rule:nonzero;stroke:#cccccc;stroke-width:0.02209709"
       d="m 266.05279,321.54917 c -0.29544,-0.0788 -0.52386,-0.29713 -0.64348,-0.61495 -0.0687,-0.1824 -0.0715,-0.33862 -0.01,-0.5378 0.1043,-0.3369 0.3818,-0.57838 0.73547,-0.63997 0.27583,-0.048 0.5911,0.06 0.80024,0.27422 0.14606,0.1496 0.20859,0.27673 0.23744,0.48268 0.0469,0.33504 -0.0394,0.5853 -0.27813,0.80632 -0.19143,0.17724 -0.32868,0.23477 -0.57651,0.24166 -0.10938,0.003 -0.2287,-0.002 -0.26516,-0.0122 l 0,0 z"
       id="path4245"
       inkscape:connector-curvature="0" />
    <path
       style="fill:#cccccc;fill-opacity:1;fill-rule:nonzero;stroke:#cccccc;stroke-width:0.02209709"
       d="m 279.8071,321.5507 c -0.45585,-0.11902 -0.75897,-0.57343 -0.68531,-1.02739 0.05,-0.30806 0.23936,-0.56317 0.52097,-0.70181 0.14658,-0.0722 0.16444,-0.0756 0.39702,-0.0756 0.22931,0 0.252,0.004 0.38849,0.0709 0.17896,0.0876 0.37442,0.28565 0.45809,0.46422 0.0537,0.11463 0.0599,0.15272 0.0599,0.37082 0,0.22775 -0.005,0.2525 -0.0709,0.39275 -0.1272,0.26854 -0.37114,0.45996 -0.66491,0.52174 -0.15467,0.0325 -0.22973,0.0296 -0.40331,-0.0157 z"
       id="path4247"
       inkscape:connector-curvature="0" />
    <path
       style="fill:#cccccc;fill-opacity:1;fill-rule:nonzero;stroke:#cccccc;stroke-width:0.08838835"
       d="m 293.40315,321.45297 c -0.48255,-0.19473 -0.63432,-0.95297 -0.27448,-1.3713 0.13426,-0.1561 0.32037,-0.24764 0.57205,-0.2814 0.33966,-0.0456 0.40095,-0.0221 0.68487,0.26179 0.41965,0.41965 0.42298,0.76636 0.0113,1.17803 -0.30955,0.30955 -0.60001,0.37177 -0.99375,0.21288 z"
       id="path4249"
       inkscape:connector-curvature="0" />
    <path
       style="fill:#cccccc;fill-opacity:1;fill-rule:nonzero;stroke:#cccccc;stroke-width:0.08838835"
       d="m 307.08212,321.39648 c -0.11318,-0.0793 -0.26178,-0.27815 -0.33021,-0.44194 -0.10699,-0.25605 -0.10699,-0.33957 0,-0.59562 0.33056,-0.79115 1.3118,-0.77346 1.64446,0.0297 0.2998,0.72378 -0.66429,1.46316 -1.31425,1.00791 z"
       id="path4251"
       inkscape:connector-curvature="0" />
    <path
       style="fill:#cccccc;fill-opacity:1;fill-rule:nonzero;stroke:#cccccc;stroke-width:0.08838835"
       d="m 320.71895,321.24009 c -0.40777,-0.40777 -0.40777,-0.75895 0,-1.16672 0.23279,-0.2328 0.37376,-0.30052 0.62552,-0.30052 0.76399,0 1.13439,0.95837 0.58336,1.5094 -0.3736,0.3736 -0.80828,0.35844 -1.20888,-0.0422 z"
       id="path4253"
       inkscape:connector-curvature="0" />
    <path
       style="fill:#cccccc;fill-opacity:1;fill-rule:nonzero;stroke:#cccccc;stroke-width:0.08838835"
       d="m 334.69315,321.43802 c -0.43567,-0.23958 -0.61908,-0.80967 -0.39513,-1.22813 0.10853,-0.2028 0.5335,-0.43704 0.79287,-0.43704 0.45568,0 0.88389,0.43235 0.88389,0.89243 0,0.62526 -0.73928,1.071 -1.28163,0.77274 z"
       id="path4255"
       inkscape:connector-curvature="0" />
    <path
       style="fill:#cccccc;fill-opacity:1;fill-rule:nonzero;stroke:#cccccc;stroke-width:0.08838835"
       d="m 348.25396,321.28225 c -0.36382,-0.36383 -0.36382,-0.88721 0,-1.25104 0.35202,-0.35202 0.78215,-0.35284 1.17454,-0.002 0.23721,0.21195 0.28665,0.32021 0.28665,0.62777 0,0.30755 -0.0494,0.41581 -0.28665,0.62776 -0.39239,0.3506 -0.82252,0.34977 -1.17454,-0.002 l 0,0 z"
       id="path4257"
       inkscape:connector-curvature="0" />
    <path
       style="fill:#cccccc;fill-opacity:1;fill-rule:nonzero;stroke:#cccccc;stroke-width:0.08838835"
       d="m 348.26754,331.0345 c -0.5255,-0.44218 -0.29332,-1.33089 0.39268,-1.50307 0.54192,-0.13601 1.17858,0.48011 1.05895,1.0248 -0.14778,0.6728 -0.91862,0.92677 -1.45163,0.47827 z"
       id="path4259"
       inkscape:connector-curvature="0" />
    <path
       style="fill:#cccccc;fill-opacity:1;fill-rule:nonzero;stroke:#cccccc;stroke-width:0.08838835"
       d="m 334.46538,331.00497 c -0.35202,-0.35203 -0.35285,-0.78216 -0.002,-1.17455 0.21195,-0.23721 0.32021,-0.28664 0.62776,-0.28664 0.31041,0 0.41549,0.0491 0.63772,0.29779 0.23082,0.25832 0.25963,0.34589 0.21739,0.66076 -0.10015,0.74672 -0.94854,1.03473 -1.48063,0.50264 l 0,0 z"
       id="path4261"
       inkscape:connector-curvature="0" />
    <path
       style="fill:#cccccc;fill-opacity:1;fill-rule:nonzero;stroke:#cccccc;stroke-width:0.08838835"
       d="m 320.83827,331.16786 c -0.25024,-0.14575 -0.44355,-0.6036 -0.38289,-0.90689 0.21182,-1.05907 1.71905,-0.93053 1.72801,0.14737 0.004,0.47386 -0.37823,0.85607 -0.85218,0.8523 -0.18604,-0.002 -0.40786,-0.0432 -0.49294,-0.0928 z"
       id="path4263"
       inkscape:connector-curvature="0" />
    <path
       style="fill:#cccccc;fill-opacity:1;fill-rule:nonzero;stroke:#cccccc;stroke-width:0.08838835"
       d="m 306.96773,331.02026 c -0.29487,-0.31782 -0.35646,-0.60204 -0.20763,-0.95823 0.12152,-0.29084 0.51898,-0.56675 0.81553,-0.56614 0.51765,0.001 1.01057,0.69689 0.83005,1.1717 -0.23776,0.62536 -1.00936,0.81461 -1.43795,0.35267 z"
       id="path4265"
       inkscape:connector-curvature="0" />
    <path
       style="fill:#cccccc;fill-opacity:1;fill-rule:nonzero;stroke:#cccccc;stroke-width:0.08838835"
       d="m 293.18802,331.00497 c -0.43343,-0.43343 -0.31118,-1.11515 0.24751,-1.38027 0.75635,-0.35891 1.5216,0.43807 1.13622,1.18333 -0.27727,0.53617 -0.9489,0.63176 -1.38373,0.19694 z"
       id="path4267"
       inkscape:connector-curvature="0" />
    <path
       style="fill:#cccccc;fill-opacity:1;fill-rule:nonzero;stroke:#cccccc;stroke-width:0.08838835"
       d="m 279.56091,331.16786 c -0.20305,-0.11827 -0.41984,-0.5452 -0.41984,-0.82682 0,-0.12318 0.11525,-0.35296 0.25612,-0.51062 0.21195,-0.23721 0.32021,-0.28664 0.62776,-0.28664 0.30756,0 0.41582,0.0494 0.62777,0.28664 0.3506,0.39239 0.34977,0.82252 -0.002,1.17455 -0.19719,0.19718 -0.33847,0.25772 -0.59662,0.25567 -0.18604,-0.002 -0.40787,-0.0432 -0.49294,-0.0928 z"
       id="path4269"
       inkscape:connector-curvature="0" />
    <path
       style="fill:#cccccc;fill-opacity:1;fill-rule:nonzero;stroke:#cccccc;stroke-width:0.08838835"
       d="m 265.71729,331.07807 c -0.46287,-0.43123 -0.41194,-1.09498 0.10835,-1.41224 0.33582,-0.20477 0.51468,-0.21247 0.85444,-0.0368 0.80224,0.41485 0.50424,1.63427 -0.39938,1.63427 -0.24794,0 -0.42816,-0.0593 -0.56341,-0.18526 z"
       id="path4271"
       inkscape:connector-curvature="0" />
  </g>
</svg>
